<?xml version="1.0" standalone="no"?>
<!DOCTYPE svg PUBLIC "-//W3C//DTD SVG 20010904//EN"
 "http://www.w3.org/TR/2001/REC-SVG-20010904/DTD/svg10.dtd">
<svg version="1.0" xmlns="http://www.w3.org/2000/svg"
 width="600.000000pt" height="140.000000pt" viewBox="0 0 600.000000 140.000000"
 preserveAspectRatio="xMidYMid meet">

<g transform="translate(0.000000,140.000000) scale(0.100000,-0.100000)"
fill="#000000" stroke="none">
<path d="M408 993 l-188 -107 0 -223 0 -222 168 -99 c92 -55 177 -105 190
-111 21 -11 41 -2 213 95 l189 108 -2 225 -3 225 -180 108 c-99 59 -184 107
-190 107 -5 0 -94 -48 -197 -106z m360 -15 c86 -50 161 -95 165 -98 5 -4 -67
-51 -160 -105 l-168 -97 -55 30 c-30 17 -108 62 -174 100 l-118 70 43 25 c182
104 295 167 302 167 5 0 79 -41 165 -92z m-516 -150 c-7 -7 -12 -8 -12 -2 0
14 12 26 19 19 2 -3 -1 -11 -7 -17z m708 -177 l0 -199 -157 -90 c-87 -50 -165
-93 -174 -97 -14 -5 -16 15 -15 192 l1 198 165 96 c91 53 168 97 173 98 4 1 7
-88 7 -198z m-685 149 c-16 -16 -31 -28 -33 -25 -7 7 39 55 52 55 5 0 -3 -13
-19 -30z m20 -30 c-21 -22 -44 -40 -49 -40 -6 0 8 18 29 40 21 22 44 40 49 40
6 0 -8 -18 -29 -40z m11 -38 c-30 -31 -59 -53 -63 -49 -9 10 98 118 110 110 5
-3 -16 -31 -47 -61z m74 39 c0 -16 -128 -146 -136 -138 -4 4 23 39 61 77 73
74 75 75 75 61z m-40 -98 c-47 -48 -86 -89 -87 -92 -2 -2 -6 -1 -10 3 -8 8
156 176 172 176 5 0 -29 -39 -75 -87z m10 -38 c-57 -57 -106 -102 -109 -99 -7
6 191 204 204 204 5 0 -37 -47 -95 -105z m15 -35 c-65 -65 -121 -117 -124
-114 -3 2 13 23 35 47 152 161 179 187 193 187 9 0 -38 -54 -104 -120z m57 13
c-111 -121 -160 -168 -169 -160 -4 4 49 64 117 132 68 68 126 122 128 120 3
-2 -32 -44 -76 -92z m47 -1 c-36 -37 -91 -94 -122 -127 -30 -33 -59 -56 -63
-52 -5 4 48 64 116 132 68 68 126 122 129 119 3 -2 -24 -35 -60 -72z m0 -49
c-58 -60 -116 -119 -127 -132 -12 -14 -25 -21 -29 -17 -8 8 236 256 252 256 5
0 -38 -48 -96 -107z m121 79 c0 -4 -57 -63 -126 -132 -69 -69 -125 -120 -123
-114 6 16 231 254 241 254 4 0 8 -3 8 -8z m0 -50 c0 -13 -209 -216 -216 -209
-7 7 194 217 208 217 4 0 8 -3 8 -8z m-8 -59 c-18 -31 -171 -177 -179 -170 -4
4 35 50 87 102 90 91 113 108 92 68z m-18 -66 c-17 -17 -51 -54 -77 -82 -25
-27 -49 -46 -53 -42 -5 4 28 43 71 87 43 44 81 77 84 75 2 -3 -9 -20 -25 -38z
m-34 -82 c-35 -35 -66 -62 -69 -59 -3 2 24 34 59 69 35 35 66 62 69 59 3 -2
-24 -34 -59 -69z m60 18 c0 -11 -83 -93 -93 -93 -6 0 10 22 34 49 42 47 59 59
59 44z m0 -51 c0 -14 -59 -66 -67 -59 -3 4 6 21 22 37 28 30 45 38 45 22z
m-14 -70 c-23 -23 -33 -6 -10 19 12 13 20 16 22 9 3 -7 -3 -19 -12 -28z"/>
<path d="M590 1030 c0 -5 5 -10 10 -10 6 0 10 5 10 10 0 6 -4 10 -10 10 -5 0
-10 -4 -10 -10z"/>
<path d="M590 970 c0 -5 7 -10 16 -10 8 0 12 5 9 10 -3 6 -10 10 -16 10 -5 0
-9 -4 -9 -10z"/>
<path d="M590 911 c0 -6 5 -13 10 -16 6 -3 10 1 10 9 0 9 -4 16 -10 16 -5 0
-10 -4 -10 -9z"/>
<path d="M590 845 c0 -8 5 -15 10 -15 6 0 10 7 10 15 0 8 -4 15 -10 15 -5 0
-10 -7 -10 -15z"/>
<path d="M590 785 c0 -8 5 -15 10 -15 6 0 10 7 10 15 0 8 -4 15 -10 15 -5 0
-10 -7 -10 -15z"/>
<path d="M590 720 c0 -5 5 -10 10 -10 6 0 10 5 10 10 0 6 -4 10 -10 10 -5 0
-10 -4 -10 -10z"/>
<path d="M640 630 c0 -5 5 -10 10 -10 6 0 10 5 10 10 0 6 -4 10 -10 10 -5 0
-10 -4 -10 -10z"/>
<path d="M695 600 c-3 -5 1 -10 9 -10 9 0 16 5 16 10 0 6 -4 10 -9 10 -6 0
-13 -4 -16 -10z"/>
<path d="M750 564 c0 -8 5 -12 10 -9 6 3 10 10 10 16 0 5 -4 9 -10 9 -5 0 -10
-7 -10 -16z"/>
<path d="M800 541 c0 -6 5 -13 10 -16 6 -3 10 1 10 9 0 9 -4 16 -10 16 -5 0
-10 -4 -10 -9z"/>
<path d="M856 511 c-4 -5 -2 -12 3 -15 5 -4 12 -2 15 3 4 5 2 12 -3 15 -5 4
-12 2 -15 -3z"/>
<path d="M906 482 c-3 -6 -1 -14 5 -17 15 -10 25 3 12 16 -7 7 -13 7 -17 1z"/>
<path d="M3157 953 c-22 -4 -27 -8 -22 -23 6 -18 -1 -20 -102 -22 l-108 -3 -6
-180 c-4 -124 -10 -192 -21 -220 -15 -39 -14 -39 15 -64 24 -20 30 -22 38 -10
27 42 48 180 49 317 l0 92 35 0 c24 0 35 -5 35 -15 0 -10 -10 -15 -30 -15 -27
0 -30 -3 -30 -30 0 -27 3 -30 30 -30 29 0 30 -2 30 -45 l0 -45 135 0 135 0 0
45 0 45 40 0 c38 0 40 2 40 30 0 28 -2 30 -40 30 -28 0 -40 4 -40 14 0 10 14
16 43 18 39 3 42 5 45 36 l3 32 -96 0 c-92 0 -96 1 -107 25 -11 25 -16 26 -71
18z m117 -128 c-5 -11 -22 -15 -69 -15 -47 0 -64 4 -69 15 -4 13 7 15 69 15
62 0 73 -2 69 -15z m-4 -90 c0 -12 -14 -15 -65 -15 -51 0 -65 3 -65 15 0 12
14 15 65 15 51 0 65 -3 65 -15z"/>
<path d="M3537 938 l-27 -20 20 -28 21 -29 -43 -3 -43 -3 0 -65 0 -65 38 -3
c36 -3 37 -3 37 32 l0 36 180 0 180 0 0 -36 c0 -35 1 -35 38 -32 l37 3 0 65 0
65 -38 3 -37 3 20 27 21 26 -33 18 c-18 9 -36 17 -39 18 -3 0 -19 -20 -35 -45
-23 -37 -33 -45 -58 -45 -22 0 -27 3 -17 9 11 7 9 16 -10 50 -25 45 -27 46
-64 29 -29 -13 -29 -14 -10 -48 21 -36 19 -40 -21 -40 -19 0 -33 4 -30 9 4 6
-32 62 -57 88 -1 1 -14 -8 -30 -19z"/>
<path d="M5321 929 c-23 -30 -114 -109 -159 -139 -21 -14 -21 -18 -10 -48 l13
-34 75 6 c41 3 133 9 204 12 l130 7 22 -29 23 -28 26 24 c14 13 25 28 25 33 0
5 -32 42 -71 83 -74 75 -73 75 -119 45 -12 -8 -10 -15 15 -41 l29 -30 -51 0
c-27 0 -86 -3 -129 -6 l-79 -6 78 72 78 73 -31 18 c-39 24 -40 24 -69 -12z"/>
<path d="M2356 925 c-16 -24 -15 -25 31 -60 l46 -35 24 22 c13 12 23 25 23 29
0 8 -89 69 -101 69 -3 0 -14 -11 -23 -25z"/>
<path d="M1808 753 c-3 -142 -8 -199 -21 -233 -16 -44 -16 -46 6 -77 25 -37
31 -34 57 33 12 32 19 41 20 27 0 -22 3 -23 95 -23 l95 0 0 -36 c0 -34 1 -35
33 -32 28 3 32 7 35 36 l3 32 90 0 c88 0 89 0 89 25 0 25 -1 25 -90 25 -83 0
-90 1 -90 20 0 18 7 20 70 20 l70 0 0 30 0 30 -70 0 c-40 0 -70 4 -70 10 0 6
-16 10 -35 10 -19 0 -35 -4 -35 -10 0 -5 -13 -10 -30 -10 -16 0 -30 5 -30 10
0 23 -47 7 -82 -27 l-38 -37 0 43 c0 35 3 41 13 33 10 -9 31 -6 80 10 64 21
84 42 52 54 -10 4 -13 14 -9 28 4 19 -1 24 -43 38 -48 16 -48 16 112 16 155 0
159 -1 113 -15 -29 -8 -48 -20 -48 -29 0 -22 25 -27 78 -15 l48 12 2 94 3 95
-234 0 -235 0 -4 -187z m402 112 c0 -13 -25 -15 -165 -15 -140 0 -165 2 -165
15 0 13 25 15 165 15 140 0 165 -2 165 -15z m-300 -71 c0 -3 -4 -14 -10 -24
-8 -16 -4 -20 40 -30 28 -7 50 -16 50 -20 0 -7 -76 -30 -99 -30 -7 0 -11 23
-11 55 0 42 3 55 15 55 8 0 15 -3 15 -6z m150 -244 c0 -18 -7 -20 -72 -20 -70
0 -71 0 -53 20 14 15 31 20 72 20 46 0 53 -2 53 -20z m-160 -5 c10 -13 9 -15
-9 -15 -12 0 -21 6 -21 15 0 8 4 15 9 15 5 0 14 -7 21 -15z"/>
<path d="M4600 900 l0 -40 100 0 100 0 0 -100 0 -100 -115 0 -115 0 0 -35 0
-35 115 0 115 0 0 -85 0 -85 40 0 40 0 0 85 0 85 115 0 115 0 0 35 0 35 -115
0 -115 0 0 100 0 100 100 0 100 0 0 40 0 40 -240 0 -240 0 0 -40z"/>
<path d="M1260 900 l0 -30 180 0 c152 0 180 -2 180 -15 0 -12 -28 -15 -172
-17 l-173 -3 -3 -27 -3 -28 175 0 c169 0 176 -1 176 -20 0 -19 -7 -20 -186
-20 l-185 0 3 -27 3 -28 223 -3 222 -2 0 125 0 125 -220 0 -220 0 0 -30z"/>
<path d="M2490 870 l0 -60 35 0 c31 0 35 3 35 25 l0 25 110 0 110 0 0 -25 c0
-22 4 -25 35 -25 l35 0 0 60 0 60 -180 0 -180 0 0 -60z"/>
<path d="M4042 883 l3 -38 193 -3 192 -2 -1 -123 c0 -67 -3 -140 -7 -162 l-7
-40 -68 -3 c-65 -3 -68 -4 -62 -25 4 -12 9 -30 12 -41 4 -16 14 -18 84 -14 91
4 107 14 120 80 4 23 8 125 9 226 l0 182 -236 0 -235 0 3 -37z"/>
<path d="M4631 831 l-23 -18 48 -66 c26 -37 52 -67 58 -67 6 0 22 9 35 19 l25
19 -53 66 c-29 36 -56 66 -59 66 -4 0 -18 -9 -31 -19z"/>
<path d="M4961 783 l-54 -66 23 -19 c12 -10 26 -18 30 -18 10 0 120 118 120
128 0 7 -54 43 -62 41 -1 0 -27 -30 -57 -66z"/>
<path d="M2560 803 c-25 -19 -52 -39 -60 -43 -13 -7 -11 -13 9 -34 l24 -25 43
31 c72 52 78 61 51 85 l-22 21 -45 -35z"/>
<path d="M2705 810 c-18 -20 -18 -21 1 -34 10 -8 37 -28 58 -45 l40 -32 25 25
c14 14 23 27 20 29 -46 36 -109 77 -116 77 -6 0 -18 -9 -28 -20z"/>
<path d="M4136 805 c-9 -13 -16 -26 -16 -28 0 -3 30 -30 66 -61 l65 -56 25 30
c14 16 23 34 19 40 -7 11 -129 100 -138 100 -2 0 -12 -11 -21 -25z"/>
<path d="M2350 785 l-23 -25 44 -39 c24 -22 47 -40 50 -41 3 0 16 12 30 26
l24 25 -25 20 c-14 11 -37 28 -51 39 l-26 19 -23 -24z"/>
<path d="M2050 725 l0 -65 35 0 35 0 0 65 0 65 -35 0 -35 0 0 -65z"/>
<path d="M2630 715 l0 -35 -75 0 -75 0 0 -30 0 -30 61 0 c56 0 60 -1 48 -17
-8 -9 -39 -35 -70 -58 l-57 -42 20 -31 20 -32 35 27 c19 14 48 42 64 62 l29
36 0 -73 0 -72 40 0 40 0 0 66 0 67 54 -52 c30 -28 58 -51 63 -51 4 0 16 15
26 32 18 31 18 33 2 43 -51 29 -109 73 -113 83 -2 8 14 12 57 12 l61 0 0 30 0
30 -75 0 -75 0 0 35 c0 34 -1 35 -40 35 -39 0 -40 -1 -40 -35z"/>
<path d="M3570 715 l0 -34 93 -3 92 -3 -35 -20 c-27 -16 -60 -21 -150 -25
l-115 -5 -3 -32 -3 -33 121 0 121 0 -3 -32 c-3 -32 -4 -33 -54 -36 l-51 -3 6
-32 c6 -30 10 -32 56 -35 96 -6 125 14 125 89 l0 49 111 0 110 0 -3 33 -3 32
-94 5 -95 5 42 28 c34 22 42 33 42 57 l0 30 -155 0 -155 0 0 -35z"/>
<path d="M2136 704 c-4 -9 -5 -18 -4 -20 5 -4 151 -44 154 -41 1 1 4 12 8 23
6 19 0 23 -58 38 -81 20 -92 20 -100 0z"/>
<path d="M4365 683 c-22 -8 -105 -34 -185 -59 -79 -25 -146 -47 -148 -49 -7
-6 19 -75 28 -75 12 0 322 109 338 119 8 5 12 22 10 43 l-3 35 -40 -14z"/>
<path d="M1279 652 l-22 -19 33 -41 c18 -23 35 -42 37 -42 12 0 53 34 53 44 0
12 -61 76 -72 76 -3 0 -16 -8 -29 -18z"/>
<path d="M1425 624 c-21 -56 -77 -99 -156 -121 l-57 -16 20 -33 c23 -40 30
-41 103 -13 36 13 72 37 102 67 l46 47 42 -41 c41 -40 106 -77 155 -89 21 -4
29 1 47 29 24 37 21 46 -11 46 -66 0 -206 103 -206 150 0 16 -7 20 -34 20 -30
0 -35 -4 -51 -46z"/>
<path d="M1607 632 l-37 -38 25 -24 25 -24 45 44 44 43 -24 19 c-32 25 -35 24
-78 -20z"/>
<path d="M5190 545 l0 -125 40 0 c29 0 40 4 40 15 0 13 21 15 130 15 109 0
130 -2 130 -15 0 -11 11 -15 40 -15 l40 0 0 125 0 125 -210 0 -210 0 0 -125z
m340 15 l0 -40 -130 0 -130 0 0 40 0 40 130 0 130 0 0 -40z"/>
<path d="M2395 638 c-2 -7 -17 -54 -33 -105 l-29 -91 22 -6 c13 -3 30 -8 37
-11 11 -4 22 17 42 86 16 51 30 98 33 105 2 6 -10 17 -28 23 -40 14 -39 14
-44 -1z"/>
<path d="M3010 610 c0 -22 5 -30 18 -30 19 0 100 -76 90 -85 -3 -3 -35 -8 -72
-12 -36 -3 -66 -9 -66 -12 0 -4 7 -17 16 -29 19 -27 40 -27 135 -3 65 17 81
18 124 6 28 -7 71 -15 97 -19 45 -7 48 -6 62 23 9 16 16 32 16 36 0 3 -24 5
-52 5 -79 0 -85 9 -38 55 28 27 40 48 40 67 l0 28 -185 0 -185 0 0 -30z m260
-50 c-40 -32 -66 -34 -105 -10 -19 12 -35 24 -35 26 0 2 37 4 83 4 l82 0 -25
-20z"/>
</g>
</svg>
